<?xml version="1.0" encoding="utf-8" standalone="no"?>
<!DOCTYPE svg PUBLIC "-//W3C//DTD SVG 1.1//EN"
  "http://www.w3.org/Graphics/SVG/1.1/DTD/svg11.dtd">
<svg xmlns:xlink="http://www.w3.org/1999/xlink" width="360pt" height="360pt" viewBox="0 0 360 360" xmlns="http://www.w3.org/2000/svg" version="1.1">
 <metadata>
  <rdf:RDF xmlns:dc="http://purl.org/dc/elements/1.1/" xmlns:cc="http://creativecommons.org/ns#" xmlns:rdf="http://www.w3.org/1999/02/22-rdf-syntax-ns#">
   <cc:Work>
    <dc:type rdf:resource="http://purl.org/dc/dcmitype/StillImage"/>
    <dc:date>2024-08-25T09:43:00.293114</dc:date>
    <dc:format>image/svg+xml</dc:format>
    <dc:creator>
     <cc:Agent>
      <dc:title>Matplotlib v3.9.0, https://matplotlib.org/</dc:title>
     </cc:Agent>
    </dc:creator>
   </cc:Work>
  </rdf:RDF>
 </metadata>
 <defs>
  <style type="text/css">*{stroke-linejoin: round; stroke-linecap: butt}</style>
 </defs>
 <g id="figure_1">
  <g id="patch_1">
   <path d="M 0 360 
L 360 360 
L 360 0 
L 0 0 
z
" style="fill: #ffffff"/>
  </g>
  <g id="axes_1">
   <g id="patch_2">
    <path d="M 59.658108 317.831983 
L 349.2 317.831983 
L 349.2 25.794028 
L 59.658108 25.794028 
z
" style="fill: #ffffff"/>
   </g>
   <g id="PathCollection_1">
    <defs>
     <path id="m521dddfccd" d="M 0 1.936492 
C 0.513564 1.936492 1.006162 1.732451 1.369306 1.369306 
C 1.732451 1.006162 1.936492 0.513564 1.936492 0 
C 1.936492 -0.513564 1.732451 -1.006162 1.369306 -1.369306 
C 1.006162 -1.732451 0.513564 -1.936492 0 -1.936492 
C -0.513564 -1.936492 -1.006162 -1.732451 -1.369306 -1.369306 
C -1.732451 -1.006162 -1.936492 -0.513564 -1.936492 0 
C -1.936492 0.513564 -1.732451 1.006162 -1.369306 1.369306 
C -1.006162 1.732451 -0.513564 1.936492 0 1.936492 
z
" style="stroke: #ff0000"/>
    </defs>
    <g clip-path="url(#pb60ad9c979)">
     <use xlink:href="#m521dddfccd" x="176.617684" y="227.484509" style="fill: #ff0000; stroke: #ff0000"/>
     <use xlink:href="#m521dddfccd" x="239.722971" y="163.557423" style="fill: #ff0000; stroke: #ff0000"/>
     <use xlink:href="#m521dddfccd" x="140.570699" y="265.534417" style="fill: #ff0000; stroke: #ff0000"/>
     <use xlink:href="#m521dddfccd" x="265.063331" y="142.157891" style="fill: #ff0000; stroke: #ff0000"/>
     <use xlink:href="#m521dddfccd" x="246.190546" y="197.043413" style="fill: #ff0000; stroke: #ff0000"/>
     <use xlink:href="#m521dddfccd" x="189.031782" y="220.521022" style="fill: #ff0000; stroke: #ff0000"/>
     <use xlink:href="#m521dddfccd" x="269.525861" y="146.659238" style="fill: #ff0000; stroke: #ff0000"/>
     <use xlink:href="#m521dddfccd" x="198.284129" y="222.216498" style="fill: #ff0000; stroke: #ff0000"/>
     <use xlink:href="#m521dddfccd" x="116.450523" y="274.816348" style="fill: #ff0000; stroke: #ff0000"/>
     <use xlink:href="#m521dddfccd" x="271.675168" y="156.485917" style="fill: #ff0000; stroke: #ff0000"/>
     <use xlink:href="#m521dddfccd" x="287.321329" y="112.010679" style="fill: #ff0000; stroke: #ff0000"/>
     <use xlink:href="#m521dddfccd" x="296.70054" y="101.336567" style="fill: #ff0000; stroke: #ff0000"/>
     <use xlink:href="#m521dddfccd" x="293.46885" y="75.332394" style="fill: #ff0000; stroke: #ff0000"/>
     <use xlink:href="#m521dddfccd" x="134.226525" y="268.509995" style="fill: #ff0000; stroke: #ff0000"/>
     <use xlink:href="#m521dddfccd" x="283.111453" y="109.000154" style="fill: #ff0000; stroke: #ff0000"/>
     <use xlink:href="#m521dddfccd" x="142.602272" y="267.930061" style="fill: #ff0000; stroke: #ff0000"/>
     <use xlink:href="#m521dddfccd" x="329.649975" y="55.09273" style="fill: #ff0000; stroke: #ff0000"/>
     <use xlink:href="#m521dddfccd" x="158.654675" y="246.561654" style="fill: #ff0000; stroke: #ff0000"/>
     <use xlink:href="#m521dddfccd" x="171.978405" y="218.817289" style="fill: #ff0000; stroke: #ff0000"/>
     <use xlink:href="#m521dddfccd" x="218.648999" y="173.220154" style="fill: #ff0000; stroke: #ff0000"/>
     <use xlink:href="#m521dddfccd" x="171.782814" y="239.374451" style="fill: #ff0000; stroke: #ff0000"/>
     <use xlink:href="#m521dddfccd" x="229.942287" y="193.593355" style="fill: #ff0000; stroke: #ff0000"/>
     <use xlink:href="#m521dddfccd" x="185.8235" y="233.047982" style="fill: #ff0000; stroke: #ff0000"/>
     <use xlink:href="#m521dddfccd" x="265.437385" y="141.676241" style="fill: #ff0000; stroke: #ff0000"/>
     <use xlink:href="#m521dddfccd" x="267.756013" y="147.095526" style="fill: #ff0000; stroke: #ff0000"/>
     <use xlink:href="#m521dddfccd" x="215.375804" y="206.099045" style="fill: #ff0000; stroke: #ff0000"/>
     <use xlink:href="#m521dddfccd" x="166.623522" y="262.587857" style="fill: #ff0000; stroke: #ff0000"/>
     <use xlink:href="#m521dddfccd" x="275.870987" y="134.811497" style="fill: #ff0000; stroke: #ff0000"/>
     <use xlink:href="#m521dddfccd" x="238.806844" y="149.88315" style="fill: #ff0000; stroke: #ff0000"/>
     <use xlink:href="#m521dddfccd" x="257.077495" y="140.231291" style="fill: #ff0000; stroke: #ff0000"/>
     <use xlink:href="#m521dddfccd" x="288.609533" y="114.797453" style="fill: #ff0000; stroke: #ff0000"/>
     <use xlink:href="#m521dddfccd" x="120.068368" y="263.031485" style="fill: #ff0000; stroke: #ff0000"/>
     <use xlink:href="#m521dddfccd" x="187.532935" y="266.889017" style="fill: #ff0000; stroke: #ff0000"/>
     <use xlink:href="#m521dddfccd" x="123.724817" y="278.996951" style="fill: #ff0000; stroke: #ff0000"/>
     <use xlink:href="#m521dddfccd" x="258.341864" y="168.432196" style="fill: #ff0000; stroke: #ff0000"/>
     <use xlink:href="#m521dddfccd" x="163.248775" y="230.39026" style="fill: #ff0000; stroke: #ff0000"/>
     <use xlink:href="#m521dddfccd" x="249.543198" y="161.390083" style="fill: #ff0000; stroke: #ff0000"/>
     <use xlink:href="#m521dddfccd" x="153.219153" y="265.654872" style="fill: #ff0000; stroke: #ff0000"/>
     <use xlink:href="#m521dddfccd" x="246.352152" y="167.553674" style="fill: #ff0000; stroke: #ff0000"/>
     <use xlink:href="#m521dddfccd" x="234.072471" y="187.952494" style="fill: #ff0000; stroke: #ff0000"/>
     <use xlink:href="#m521dddfccd" x="107.644464" y="300.323105" style="fill: #ff0000; stroke: #ff0000"/>
     <use xlink:href="#m521dddfccd" x="336.039005" y="39.068481" style="fill: #ff0000; stroke: #ff0000"/>
     <use xlink:href="#m521dddfccd" x="203.271697" y="199.986099" style="fill: #ff0000; stroke: #ff0000"/>
     <use xlink:href="#m521dddfccd" x="289.275429" y="116.724902" style="fill: #ff0000; stroke: #ff0000"/>
     <use xlink:href="#m521dddfccd" x="260.978108" y="117.111751" style="fill: #ff0000; stroke: #ff0000"/>
     <use xlink:href="#m521dddfccd" x="260.803344" y="136.164534" style="fill: #ff0000; stroke: #ff0000"/>
     <use xlink:href="#m521dddfccd" x="276.482222" y="138.085188" style="fill: #ff0000; stroke: #ff0000"/>
     <use xlink:href="#m521dddfccd" x="193.419118" y="228.17574" style="fill: #ff0000; stroke: #ff0000"/>
     <use xlink:href="#m521dddfccd" x="186.96752" y="226.293958" style="fill: #ff0000; stroke: #ff0000"/>
     <use xlink:href="#m521dddfccd" x="214.248428" y="202.183816" style="fill: #ff0000; stroke: #ff0000"/>
     <use xlink:href="#m521dddfccd" x="301.33972" y="86.825225" style="fill: #ff0000; stroke: #ff0000"/>
     <use xlink:href="#m521dddfccd" x="170.085858" y="247.836999" style="fill: #ff0000; stroke: #ff0000"/>
     <use xlink:href="#m521dddfccd" x="255.728544" y="142.116267" style="fill: #ff0000; stroke: #ff0000"/>
     <use xlink:href="#m521dddfccd" x="241.965758" y="180.266515" style="fill: #ff0000; stroke: #ff0000"/>
     <use xlink:href="#m521dddfccd" x="192.182399" y="218.813602" style="fill: #ff0000; stroke: #ff0000"/>
     <use xlink:href="#m521dddfccd" x="234.527941" y="164.536353" style="fill: #ff0000; stroke: #ff0000"/>
     <use xlink:href="#m521dddfccd" x="219.315305" y="157.873443" style="fill: #ff0000; stroke: #ff0000"/>
     <use xlink:href="#m521dddfccd" x="155.578508" y="257.90695" style="fill: #ff0000; stroke: #ff0000"/>
     <use xlink:href="#m521dddfccd" x="297.59329" y="96.875995" style="fill: #ff0000; stroke: #ff0000"/>
     <use xlink:href="#m521dddfccd" x="227.863681" y="183.148396" style="fill: #ff0000; stroke: #ff0000"/>
     <use xlink:href="#m521dddfccd" x="277.673637" y="142.950957" style="fill: #ff0000; stroke: #ff0000"/>
     <use xlink:href="#m521dddfccd" x="266.386554" y="125.355697" style="fill: #ff0000; stroke: #ff0000"/>
     <use xlink:href="#m521dddfccd" x="297.611716" y="86.744186" style="fill: #ff0000; stroke: #ff0000"/>
     <use xlink:href="#m521dddfccd" x="105.301958" y="287.899967" style="fill: #ff0000; stroke: #ff0000"/>
     <use xlink:href="#m521dddfccd" x="177.399442" y="227.923294" style="fill: #ff0000; stroke: #ff0000"/>
     <use xlink:href="#m521dddfccd" x="79.289989" y="303.010848" style="fill: #ff0000; stroke: #ff0000"/>
     <use xlink:href="#m521dddfccd" x="290.694008" y="117.609881" style="fill: #ff0000; stroke: #ff0000"/>
     <use xlink:href="#m521dddfccd" x="262.11104" y="136.740985" style="fill: #ff0000; stroke: #ff0000"/>
     <use xlink:href="#m521dddfccd" x="188.865455" y="231.95101" style="fill: #ff0000; stroke: #ff0000"/>
     <use xlink:href="#m521dddfccd" x="266.260496" y="212.483362" style="fill: #ff0000; stroke: #ff0000"/>
     <use xlink:href="#m521dddfccd" x="242.403461" y="159.213398" style="fill: #ff0000; stroke: #ff0000"/>
     <use xlink:href="#m521dddfccd" x="169.900565" y="243.240461" style="fill: #ff0000; stroke: #ff0000"/>
     <use xlink:href="#m521dddfccd" x="231.957408" y="167.456324" style="fill: #ff0000; stroke: #ff0000"/>
     <use xlink:href="#m521dddfccd" x="243.968456" y="161.858311" style="fill: #ff0000; stroke: #ff0000"/>
     <use xlink:href="#m521dddfccd" x="302.899359" y="98.310582" style="fill: #ff0000; stroke: #ff0000"/>
     <use xlink:href="#m521dddfccd" x="72.819103" y="304.557531" style="fill: #ff0000; stroke: #ff0000"/>
     <use xlink:href="#m521dddfccd" x="275.565259" y="131.581639" style="fill: #ff0000; stroke: #ff0000"/>
     <use xlink:href="#m521dddfccd" x="225.766339" y="194.335486" style="fill: #ff0000; stroke: #ff0000"/>
     <use xlink:href="#m521dddfccd" x="242.420612" y="194.94736" style="fill: #ff0000; stroke: #ff0000"/>
     <use xlink:href="#m521dddfccd" x="165.624474" y="245.631654" style="fill: #ff0000; stroke: #ff0000"/>
     <use xlink:href="#m521dddfccd" x="277.045282" y="123.476837" style="fill: #ff0000; stroke: #ff0000"/>
     <use xlink:href="#m521dddfccd" x="245.223478" y="177.948309" style="fill: #ff0000; stroke: #ff0000"/>
     <use xlink:href="#m521dddfccd" x="207.637351" y="202.407805" style="fill: #ff0000; stroke: #ff0000"/>
     <use xlink:href="#m521dddfccd" x="186.897533" y="234.026828" style="fill: #ff0000; stroke: #ff0000"/>
     <use xlink:href="#m521dddfccd" x="251.464879" y="167.660197" style="fill: #ff0000; stroke: #ff0000"/>
     <use xlink:href="#m521dddfccd" x="131.350878" y="271.351985" style="fill: #ff0000; stroke: #ff0000"/>
     <use xlink:href="#m521dddfccd" x="239.579424" y="174.005915" style="fill: #ff0000; stroke: #ff0000"/>
     <use xlink:href="#m521dddfccd" x="261.908206" y="120.072327" style="fill: #ff0000; stroke: #ff0000"/>
     <use xlink:href="#m521dddfccd" x="278.856462" y="127.010636" style="fill: #ff0000; stroke: #ff0000"/>
     <use xlink:href="#m521dddfccd" x="258.651011" y="189.416659" style="fill: #ff0000; stroke: #ff0000"/>
     <use xlink:href="#m521dddfccd" x="212.930839" y="204.996312" style="fill: #ff0000; stroke: #ff0000"/>
     <use xlink:href="#m521dddfccd" x="104.536974" y="297.871923" style="fill: #ff0000; stroke: #ff0000"/>
     <use xlink:href="#m521dddfccd" x="255.39694" y="149.323178" style="fill: #ff0000; stroke: #ff0000"/>
     <use xlink:href="#m521dddfccd" x="272.69449" y="139.851578" style="fill: #ff0000; stroke: #ff0000"/>
     <use xlink:href="#m521dddfccd" x="107.360756" y="291.216267" style="fill: #ff0000; stroke: #ff0000"/>
     <use xlink:href="#m521dddfccd" x="226.169067" y="191.808395" style="fill: #ff0000; stroke: #ff0000"/>
     <use xlink:href="#m521dddfccd" x="102.614189" y="275.932621" style="fill: #ff0000; stroke: #ff0000"/>
     <use xlink:href="#m521dddfccd" x="180.035347" y="232.715194" style="fill: #ff0000; stroke: #ff0000"/>
     <use xlink:href="#m521dddfccd" x="208.509692" y="220.459792" style="fill: #ff0000; stroke: #ff0000"/>
    </g>
   </g>
   <g id="matplotlib.axis_1">
    <g id="xtick_1">
     <g id="line2d_1">
      <path d="M 69.812089 317.831983 
L 69.812089 25.794028 
" clip-path="url(#pb60ad9c979)" style="fill: none; stroke: #b0b0b0; stroke-width: 0.8; stroke-linecap: square"/>
     </g>
     <g id="line2d_2">
      <defs>
       <path id="m5fcf37505c" d="M 0 0 
L 0 3.5 
" style="stroke: #000000; stroke-width: 0.8"/>
      </defs>
      <g>
       <use xlink:href="#m5fcf37505c" x="69.812089" y="317.831983" style="stroke: #000000; stroke-width: 0.8"/>
      </g>
     </g>
     <g id="text_1">
      <!-- $\mathdefault{0.05}$ -->
      <g transform="translate(60.956382 331.750481) scale(0.1 -0.1)">
       <defs>
        <path id="CMR17-30" d="M 2688 2025 
C 2688 2416 2682 3080 2413 3591 
C 2176 4039 1798 4198 1466 4198 
C 1158 4198 768 4058 525 3597 
C 269 3118 243 2524 243 2025 
C 243 1661 250 1106 448 619 
C 723 -39 1216 -128 1466 -128 
C 1760 -128 2208 -7 2470 600 
C 2662 1042 2688 1559 2688 2025 
z
M 1466 -26 
C 1056 -26 813 325 723 812 
C 653 1188 653 1738 653 2096 
C 653 2588 653 2997 736 3387 
C 858 3929 1216 4096 1466 4096 
C 1728 4096 2067 3923 2189 3400 
C 2272 3036 2278 2607 2278 2096 
C 2278 1680 2278 1169 2202 792 
C 2067 95 1690 -26 1466 -26 
z
" transform="scale(0.015625)"/>
        <path id="CMMI12-3a" d="M 1178 307 
C 1178 492 1024 619 870 619 
C 685 619 557 466 557 313 
C 557 128 710 0 864 0 
C 1050 0 1178 153 1178 307 
z
" transform="scale(0.015625)"/>
        <path id="CMR17-35" d="M 730 3692 
C 794 3666 1056 3584 1325 3584 
C 1920 3584 2246 3911 2432 4100 
C 2432 4157 2432 4192 2394 4192 
C 2387 4192 2374 4192 2323 4163 
C 2099 4058 1837 3973 1517 3973 
C 1325 3973 1037 3999 723 4139 
C 653 4171 640 4171 634 4171 
C 602 4171 595 4164 595 4037 
L 595 2203 
C 595 2089 595 2057 659 2057 
C 691 2057 704 2070 736 2114 
C 941 2401 1222 2522 1542 2522 
C 1766 2522 2246 2382 2246 1289 
C 2246 1085 2246 715 2054 421 
C 1894 159 1645 25 1370 25 
C 947 25 518 320 403 814 
C 429 807 480 795 506 795 
C 589 795 749 840 749 1038 
C 749 1210 627 1280 506 1280 
C 358 1280 262 1190 262 1011 
C 262 454 704 -128 1382 -128 
C 2042 -128 2669 440 2669 1264 
C 2669 2030 2170 2624 1549 2624 
C 1222 2624 947 2503 730 2274 
L 730 3692 
z
" transform="scale(0.015625)"/>
       </defs>
       <use xlink:href="#CMR17-30" transform="scale(0.996264)"/>
       <use xlink:href="#CMMI12-3a" transform="translate(45.690477 0) scale(0.996264)"/>
       <use xlink:href="#CMR17-30" transform="translate(72.787654 0) scale(0.996264)"/>
       <use xlink:href="#CMR17-35" transform="translate(118.478131 0) scale(0.996264)"/>
      </g>
     </g>
    </g>
    <g id="xtick_2">
     <g id="line2d_3">
      <path d="M 134.144943 317.831983 
L 134.144943 25.794028 
" clip-path="url(#pb60ad9c979)" style="fill: none; stroke: #b0b0b0; stroke-width: 0.8; stroke-linecap: square"/>
     </g>
     <g id="line2d_4">
      <g>
       <use xlink:href="#m5fcf37505c" x="134.144943" y="317.831983" style="stroke: #000000; stroke-width: 0.8"/>
      </g>
     </g>
     <g id="text_2">
      <!-- $\mathdefault{0.06}$ -->
      <g transform="translate(125.289236 331.750481) scale(0.1 -0.1)">
       <defs>
        <path id="CMR17-36" d="M 678 2176 
C 678 3690 1395 4032 1811 4032 
C 1946 4032 2272 4009 2400 3776 
C 2298 3776 2106 3776 2106 3553 
C 2106 3381 2246 3323 2336 3323 
C 2394 3323 2566 3348 2566 3560 
C 2566 3954 2246 4179 1805 4179 
C 1043 4179 243 3390 243 1984 
C 243 253 966 -128 1478 -128 
C 2099 -128 2688 427 2688 1283 
C 2688 2081 2170 2662 1517 2662 
C 1126 2662 838 2407 678 1960 
L 678 2176 
z
M 1478 25 
C 691 25 691 1200 691 1436 
C 691 1896 909 2560 1504 2560 
C 1613 2560 1926 2560 2138 2120 
C 2253 1870 2253 1609 2253 1289 
C 2253 944 2253 690 2118 434 
C 1978 171 1773 25 1478 25 
z
" transform="scale(0.015625)"/>
       </defs>
       <use xlink:href="#CMR17-30" transform="scale(0.996264)"/>
       <use xlink:href="#CMMI12-3a" transform="translate(45.690477 0) scale(0.996264)"/>
       <use xlink:href="#CMR17-30" transform="translate(72.787654 0) scale(0.996264)"/>
       <use xlink:href="#CMR17-36" transform="translate(118.478131 0) scale(0.996264)"/>
      </g>
     </g>
    </g>
    <g id="xtick_3">
     <g id="line2d_5">
      <path d="M 198.477796 317.831983 
L 198.477796 25.794028 
" clip-path="url(#pb60ad9c979)" style="fill: none; stroke: #b0b0b0; stroke-width: 0.8; stroke-linecap: square"/>
     </g>
     <g id="line2d_6">
      <g>
       <use xlink:href="#m5fcf37505c" x="198.477796" y="317.831983" style="stroke: #000000; stroke-width: 0.8"/>
      </g>
     </g>
     <g id="text_3">
      <!-- $\mathdefault{0.07}$ -->
      <g transform="translate(189.622089 331.750481) scale(0.1 -0.1)">
       <defs>
        <path id="CMR17-37" d="M 2886 3941 
L 2886 4081 
L 1382 4081 
C 634 4081 621 4165 595 4288 
L 480 4288 
L 294 3094 
L 410 3094 
C 429 3215 474 3540 550 3661 
C 589 3712 1062 3712 1171 3712 
L 2579 3712 
L 1869 2661 
C 1395 1954 1069 999 1069 165 
C 1069 89 1069 -128 1299 -128 
C 1530 -128 1530 89 1530 171 
L 1530 465 
C 1530 1508 1709 2196 2003 2636 
L 2886 3941 
z
" transform="scale(0.015625)"/>
       </defs>
       <use xlink:href="#CMR17-30" transform="scale(0.996264)"/>
       <use xlink:href="#CMMI12-3a" transform="translate(45.690477 0) scale(0.996264)"/>
       <use xlink:href="#CMR17-30" transform="translate(72.787654 0) scale(0.996264)"/>
       <use xlink:href="#CMR17-37" transform="translate(118.478131 0) scale(0.996264)"/>
      </g>
     </g>
    </g>
    <g id="xtick_4">
     <g id="line2d_7">
      <path d="M 262.810649 317.831983 
L 262.810649 25.794028 
" clip-path="url(#pb60ad9c979)" style="fill: none; stroke: #b0b0b0; stroke-width: 0.8; stroke-linecap: square"/>
     </g>
     <g id="line2d_8">
      <g>
       <use xlink:href="#m5fcf37505c" x="262.810649" y="317.831983" style="stroke: #000000; stroke-width: 0.8"/>
      </g>
     </g>
     <g id="text_4">
      <!-- $\mathdefault{0.08}$ -->
      <g transform="translate(253.954942 331.750481) scale(0.1 -0.1)">
       <defs>
        <path id="CMR17-38" d="M 1741 2264 
C 2144 2467 2554 2773 2554 3263 
C 2554 3841 1990 4179 1472 4179 
C 890 4179 378 3759 378 3180 
C 378 3021 416 2747 666 2505 
C 730 2442 998 2251 1171 2130 
C 883 1983 211 1634 211 934 
C 211 279 838 -128 1459 -128 
C 2144 -128 2720 362 2720 1010 
C 2720 1590 2330 1857 2074 2029 
L 1741 2264 
z
M 902 2822 
C 851 2854 595 3051 595 3351 
C 595 3739 998 4032 1459 4032 
C 1965 4032 2336 3676 2336 3262 
C 2336 2669 1670 2331 1638 2331 
C 1632 2331 1626 2331 1574 2370 
L 902 2822 
z
M 2080 1519 
C 2176 1449 2483 1240 2483 851 
C 2483 381 2010 25 1472 25 
C 890 25 448 438 448 940 
C 448 1443 838 1862 1280 2060 
L 2080 1519 
z
" transform="scale(0.015625)"/>
       </defs>
       <use xlink:href="#CMR17-30" transform="scale(0.996264)"/>
       <use xlink:href="#CMMI12-3a" transform="translate(45.690477 0) scale(0.996264)"/>
       <use xlink:href="#CMR17-30" transform="translate(72.787654 0) scale(0.996264)"/>
       <use xlink:href="#CMR17-38" transform="translate(118.478131 0) scale(0.996264)"/>
      </g>
     </g>
    </g>
    <g id="xtick_5">
     <g id="line2d_9">
      <path d="M 327.143503 317.831983 
L 327.143503 25.794028 
" clip-path="url(#pb60ad9c979)" style="fill: none; stroke: #b0b0b0; stroke-width: 0.8; stroke-linecap: square"/>
     </g>
     <g id="line2d_10">
      <g>
       <use xlink:href="#m5fcf37505c" x="327.143503" y="317.831983" style="stroke: #000000; stroke-width: 0.8"/>
      </g>
     </g>
     <g id="text_5">
      <!-- $\mathdefault{0.09}$ -->
      <g transform="translate(318.287796 331.750481) scale(0.1 -0.1)">
       <defs>
        <path id="CMR17-39" d="M 2253 1864 
C 2253 464 1670 31 1190 31 
C 1043 31 685 31 538 294 
C 704 268 826 357 826 518 
C 826 692 685 749 595 749 
C 538 749 365 723 365 506 
C 365 71 742 -128 1203 -128 
C 1939 -128 2688 674 2688 2073 
C 2688 3817 1971 4179 1485 4179 
C 851 4179 243 3628 243 2778 
C 243 1991 762 1408 1414 1408 
C 1952 1408 2189 1903 2253 2112 
L 2253 1864 
z
M 1427 1510 
C 1254 1510 1011 1542 813 1922 
C 678 2169 678 2461 678 2771 
C 678 3146 678 3405 858 3684 
C 947 3817 1114 4032 1485 4032 
C 2240 4032 2240 2885 2240 2632 
C 2240 2182 2035 1510 1427 1510 
z
" transform="scale(0.015625)"/>
       </defs>
       <use xlink:href="#CMR17-30" transform="scale(0.996264)"/>
       <use xlink:href="#CMMI12-3a" transform="translate(45.690477 0) scale(0.996264)"/>
       <use xlink:href="#CMR17-30" transform="translate(72.787654 0) scale(0.996264)"/>
       <use xlink:href="#CMR17-39" transform="translate(118.478131 0) scale(0.996264)"/>
      </g>
     </g>
    </g>
    <g id="text_6">
     <!-- $v$\textsubscript{eff} -->
     <g transform="translate(196.341258 346.681688) scale(0.13 -0.13)">
      <defs>
       <path id="CMMI12-76" d="M 2925 2389 
C 2925 2791 2720 2816 2669 2816 
C 2515 2816 2374 2663 2374 2535 
C 2374 2459 2419 2414 2445 2389 
C 2509 2331 2675 2159 2675 1827 
C 2675 1558 2291 64 1523 64 
C 1133 64 1056 390 1056 626 
C 1056 945 1203 1392 1376 1852 
C 1478 2114 1504 2178 1504 2305 
C 1504 2574 1312 2816 998 2816 
C 410 2816 173 1890 173 1839 
C 173 1814 198 1782 243 1782 
C 301 1782 307 1807 333 1897 
C 486 2446 736 2689 979 2689 
C 1037 2689 1146 2689 1146 2478 
C 1146 2312 1075 2127 979 1884 
C 672 1067 672 869 672 715 
C 672 575 691 313 890 134 
C 1120 -64 1440 -64 1498 -64 
C 2560 -64 2925 2024 2925 2389 
z
" transform="scale(0.015625)"/>
       <path id="CMR17-65" d="M 2438 1472 
C 2464 1498 2464 1511 2464 1576 
C 2464 2238 2118 2816 1389 2816 
C 710 2816 173 2169 173 1383 
C 173 551 781 -64 1459 -64 
C 2176 -64 2458 607 2458 740 
C 2458 784 2419 784 2406 784 
C 2362 784 2355 771 2330 696 
C 2189 265 1837 51 1504 51 
C 1229 51 954 203 781 480 
C 582 803 582 1176 582 1472 
L 2438 1472 
z
M 589 1568 
C 634 2505 1126 2714 1382 2714 
C 1818 2714 2112 2297 2118 1568 
L 589 1568 
z
" transform="scale(0.015625)"/>
       <path id="CMR17-b" d="M 2554 2560 
L 3283 2560 
L 3283 2725 
L 2541 2725 
L 2541 3494 
C 2541 4022 2810 4352 3085 4352 
C 3168 4352 3264 4327 3328 4282 
C 3277 4269 3142 4225 3142 4067 
C 3142 3901 3270 3850 3360 3850 
C 3450 3850 3578 3901 3578 4067 
C 3578 4308 3347 4454 3091 4454 
C 2842 4454 2637 4333 2477 4181 
C 2330 4390 2086 4454 1837 4454 
C 1338 4454 634 4168 634 3469 
L 634 2725 
L 122 2725 
L 122 2560 
L 634 2560 
L 634 427 
C 634 184 608 153 198 153 
L 198 -13 
C 352 0 634 0 794 0 
C 960 0 1242 0 1395 -13 
L 1395 153 
C 986 153 960 178 960 427 
L 960 2560 
L 2227 2560 
L 2227 427 
C 2227 184 2202 153 1792 153 
L 1792 -13 
C 1946 0 2240 0 2406 0 
C 2592 0 2918 0 3091 -13 
L 3091 153 
C 2630 153 2554 153 2554 439 
L 2554 2560 
z
M 947 2725 
L 947 3469 
C 947 4047 1395 4352 1824 4352 
C 1920 4352 2170 4332 2323 4187 
C 2208 4187 2099 4136 2099 3977 
C 2099 3812 2246 3767 2259 3767 
C 2227 3652 2227 3526 2227 3481 
L 2227 2725 
L 947 2725 
z
" transform="scale(0.015625)"/>
      </defs>
      <use xlink:href="#CMMI12-76" transform="scale(0.996264)"/>
      <use xlink:href="#CMR17-65" transform="translate(50.735173 -14.943915) scale(0.697382)"/>
      <use xlink:href="#CMR17-b" transform="translate(79.075005 -14.943915) scale(0.697382)"/>
     </g>
    </g>
   </g>
   <g id="matplotlib.axis_2">
    <g id="ytick_1">
     <g id="line2d_11">
      <path d="M 59.658108 317.038467 
L 349.2 317.038467 
" clip-path="url(#pb60ad9c979)" style="fill: none; stroke: #b0b0b0; stroke-width: 0.8; stroke-linecap: square"/>
     </g>
     <g id="line2d_12">
      <defs>
       <path id="m2cf52c9f33" d="M 0 0 
L -3.5 0 
" style="stroke: #000000; stroke-width: 0.8"/>
      </defs>
      <g>
       <use xlink:href="#m2cf52c9f33" x="59.658108" y="317.038467" style="stroke: #000000; stroke-width: 0.8"/>
      </g>
     </g>
     <g id="text_7">
      <!-- $\mathdefault{2000}$ -->
      <g transform="translate(32.732767 320.497716) scale(0.1 -0.1)">
       <defs>
        <path id="CMR17-32" d="M 2669 989 
L 2554 989 
C 2490 536 2438 459 2413 420 
C 2381 369 1920 369 1830 369 
L 602 369 
C 832 619 1280 1072 1824 1597 
C 2214 1967 2669 2402 2669 3035 
C 2669 3790 2067 4224 1395 4224 
C 691 4224 262 3604 262 3030 
C 262 2780 448 2748 525 2748 
C 589 2748 781 2787 781 3010 
C 781 3207 614 3264 525 3264 
C 486 3264 448 3258 422 3245 
C 544 3790 915 4058 1306 4058 
C 1862 4058 2227 3617 2227 3035 
C 2227 2479 1901 2000 1536 1584 
L 262 146 
L 262 0 
L 2515 0 
L 2669 989 
z
" transform="scale(0.015625)"/>
       </defs>
       <use xlink:href="#CMR17-32" transform="scale(0.996264)"/>
       <use xlink:href="#CMR17-30" transform="translate(45.690477 0) scale(0.996264)"/>
       <use xlink:href="#CMR17-30" transform="translate(91.380954 0) scale(0.996264)"/>
       <use xlink:href="#CMR17-30" transform="translate(137.071431 0) scale(0.996264)"/>
      </g>
     </g>
    </g>
    <g id="ytick_2">
     <g id="line2d_13">
      <path d="M 59.658108 283.059631 
L 349.2 283.059631 
" clip-path="url(#pb60ad9c979)" style="fill: none; stroke: #b0b0b0; stroke-width: 0.8; stroke-linecap: square"/>
     </g>
     <g id="line2d_14">
      <g>
       <use xlink:href="#m2cf52c9f33" x="59.658108" y="283.059631" style="stroke: #000000; stroke-width: 0.8"/>
      </g>
     </g>
     <g id="text_8">
      <!-- $\mathdefault{4000}$ -->
      <g transform="translate(32.732767 286.51888) scale(0.1 -0.1)">
       <defs>
        <path id="CMR17-34" d="M 2150 4122 
C 2150 4256 2144 4256 2029 4256 
L 128 1254 
L 128 1088 
L 1779 1088 
L 1779 457 
C 1779 224 1766 160 1318 160 
L 1197 160 
L 1197 0 
C 1402 0 1747 0 1965 0 
C 2182 0 2528 0 2733 0 
L 2733 160 
L 2611 160 
C 2163 160 2150 224 2150 457 
L 2150 1088 
L 2803 1088 
L 2803 1254 
L 2150 1254 
L 2150 4122 
z
M 1798 3703 
L 1798 1254 
L 256 1254 
L 1798 3703 
z
" transform="scale(0.015625)"/>
       </defs>
       <use xlink:href="#CMR17-34" transform="scale(0.996264)"/>
       <use xlink:href="#CMR17-30" transform="translate(45.690477 0) scale(0.996264)"/>
       <use xlink:href="#CMR17-30" transform="translate(91.380954 0) scale(0.996264)"/>
       <use xlink:href="#CMR17-30" transform="translate(137.071431 0) scale(0.996264)"/>
      </g>
     </g>
    </g>
    <g id="ytick_3">
     <g id="line2d_15">
      <path d="M 59.658108 249.080794 
L 349.2 249.080794 
" clip-path="url(#pb60ad9c979)" style="fill: none; stroke: #b0b0b0; stroke-width: 0.8; stroke-linecap: square"/>
     </g>
     <g id="line2d_16">
      <g>
       <use xlink:href="#m2cf52c9f33" x="59.658108" y="249.080794" style="stroke: #000000; stroke-width: 0.8"/>
      </g>
     </g>
     <g id="text_9">
      <!-- $\mathdefault{6000}$ -->
      <g transform="translate(32.732767 252.540044) scale(0.1 -0.1)">
       <use xlink:href="#CMR17-36" transform="scale(0.996264)"/>
       <use xlink:href="#CMR17-30" transform="translate(45.690477 0) scale(0.996264)"/>
       <use xlink:href="#CMR17-30" transform="translate(91.380954 0) scale(0.996264)"/>
       <use xlink:href="#CMR17-30" transform="translate(137.071431 0) scale(0.996264)"/>
      </g>
     </g>
    </g>
    <g id="ytick_4">
     <g id="line2d_17">
      <path d="M 59.658108 215.101958 
L 349.2 215.101958 
" clip-path="url(#pb60ad9c979)" style="fill: none; stroke: #b0b0b0; stroke-width: 0.8; stroke-linecap: square"/>
     </g>
     <g id="line2d_18">
      <g>
       <use xlink:href="#m2cf52c9f33" x="59.658108" y="215.101958" style="stroke: #000000; stroke-width: 0.8"/>
      </g>
     </g>
     <g id="text_10">
      <!-- $\mathdefault{8000}$ -->
      <g transform="translate(32.732767 218.561207) scale(0.1 -0.1)">
       <use xlink:href="#CMR17-38" transform="scale(0.996264)"/>
       <use xlink:href="#CMR17-30" transform="translate(45.690477 0) scale(0.996264)"/>
       <use xlink:href="#CMR17-30" transform="translate(91.380954 0) scale(0.996264)"/>
       <use xlink:href="#CMR17-30" transform="translate(137.071431 0) scale(0.996264)"/>
      </g>
     </g>
    </g>
    <g id="ytick_5">
     <g id="line2d_19">
      <path d="M 59.658108 181.123122 
L 349.2 181.123122 
" clip-path="url(#pb60ad9c979)" style="fill: none; stroke: #b0b0b0; stroke-width: 0.8; stroke-linecap: square"/>
     </g>
     <g id="line2d_20">
      <g>
       <use xlink:href="#m2cf52c9f33" x="59.658108" y="181.123122" style="stroke: #000000; stroke-width: 0.8"/>
      </g>
     </g>
     <g id="text_11">
      <!-- $\mathdefault{10000}$ -->
      <g transform="translate(27.751432 184.582371) scale(0.1 -0.1)">
       <defs>
        <path id="CMR17-31" d="M 1702 4058 
C 1702 4192 1696 4192 1606 4192 
C 1357 3916 979 3827 621 3827 
C 602 3827 570 3827 563 3808 
C 557 3795 557 3782 557 3648 
C 755 3648 1088 3686 1344 3839 
L 1344 461 
C 1344 236 1331 160 781 160 
L 589 160 
L 589 0 
C 896 0 1216 0 1523 0 
C 1830 0 2150 0 2458 0 
L 2458 160 
L 2266 160 
C 1715 160 1702 230 1702 458 
L 1702 4058 
z
" transform="scale(0.015625)"/>
       </defs>
       <use xlink:href="#CMR17-31" transform="scale(0.996264)"/>
       <use xlink:href="#CMR17-30" transform="translate(45.690477 0) scale(0.996264)"/>
       <use xlink:href="#CMR17-30" transform="translate(91.380954 0) scale(0.996264)"/>
       <use xlink:href="#CMR17-30" transform="translate(137.071431 0) scale(0.996264)"/>
       <use xlink:href="#CMR17-30" transform="translate(182.761908 0) scale(0.996264)"/>
      </g>
     </g>
    </g>
    <g id="ytick_6">
     <g id="line2d_21">
      <path d="M 59.658108 147.144286 
L 349.2 147.144286 
" clip-path="url(#pb60ad9c979)" style="fill: none; stroke: #b0b0b0; stroke-width: 0.8; stroke-linecap: square"/>
     </g>
     <g id="line2d_22">
      <g>
       <use xlink:href="#m2cf52c9f33" x="59.658108" y="147.144286" style="stroke: #000000; stroke-width: 0.8"/>
      </g>
     </g>
     <g id="text_12">
      <!-- $\mathdefault{12000}$ -->
      <g transform="translate(27.751432 150.603535) scale(0.1 -0.1)">
       <use xlink:href="#CMR17-31" transform="scale(0.996264)"/>
       <use xlink:href="#CMR17-32" transform="translate(45.690477 0) scale(0.996264)"/>
       <use xlink:href="#CMR17-30" transform="translate(91.380954 0) scale(0.996264)"/>
       <use xlink:href="#CMR17-30" transform="translate(137.071431 0) scale(0.996264)"/>
       <use xlink:href="#CMR17-30" transform="translate(182.761908 0) scale(0.996264)"/>
      </g>
     </g>
    </g>
    <g id="ytick_7">
     <g id="line2d_23">
      <path d="M 59.658108 113.165449 
L 349.2 113.165449 
" clip-path="url(#pb60ad9c979)" style="fill: none; stroke: #b0b0b0; stroke-width: 0.8; stroke-linecap: square"/>
     </g>
     <g id="line2d_24">
      <g>
       <use xlink:href="#m2cf52c9f33" x="59.658108" y="113.165449" style="stroke: #000000; stroke-width: 0.8"/>
      </g>
     </g>
     <g id="text_13">
      <!-- $\mathdefault{14000}$ -->
      <g transform="translate(27.751432 116.624698) scale(0.1 -0.1)">
       <use xlink:href="#CMR17-31" transform="scale(0.996264)"/>
       <use xlink:href="#CMR17-34" transform="translate(45.690477 0) scale(0.996264)"/>
       <use xlink:href="#CMR17-30" transform="translate(91.380954 0) scale(0.996264)"/>
       <use xlink:href="#CMR17-30" transform="translate(137.071431 0) scale(0.996264)"/>
       <use xlink:href="#CMR17-30" transform="translate(182.761908 0) scale(0.996264)"/>
      </g>
     </g>
    </g>
    <g id="ytick_8">
     <g id="line2d_25">
      <path d="M 59.658108 79.186613 
L 349.2 79.186613 
" clip-path="url(#pb60ad9c979)" style="fill: none; stroke: #b0b0b0; stroke-width: 0.8; stroke-linecap: square"/>
     </g>
     <g id="line2d_26">
      <g>
       <use xlink:href="#m2cf52c9f33" x="59.658108" y="79.186613" style="stroke: #000000; stroke-width: 0.8"/>
      </g>
     </g>
     <g id="text_14">
      <!-- $\mathdefault{16000}$ -->
      <g transform="translate(27.751432 82.645862) scale(0.1 -0.1)">
       <use xlink:href="#CMR17-31" transform="scale(0.996264)"/>
       <use xlink:href="#CMR17-36" transform="translate(45.690477 0) scale(0.996264)"/>
       <use xlink:href="#CMR17-30" transform="translate(91.380954 0) scale(0.996264)"/>
       <use xlink:href="#CMR17-30" transform="translate(137.071431 0) scale(0.996264)"/>
       <use xlink:href="#CMR17-30" transform="translate(182.761908 0) scale(0.996264)"/>
      </g>
     </g>
    </g>
    <g id="ytick_9">
     <g id="line2d_27">
      <path d="M 59.658108 45.207777 
L 349.2 45.207777 
" clip-path="url(#pb60ad9c979)" style="fill: none; stroke: #b0b0b0; stroke-width: 0.8; stroke-linecap: square"/>
     </g>
     <g id="line2d_28">
      <g>
       <use xlink:href="#m2cf52c9f33" x="59.658108" y="45.207777" style="stroke: #000000; stroke-width: 0.8"/>
      </g>
     </g>
     <g id="text_15">
      <!-- $\mathdefault{18000}$ -->
      <g transform="translate(27.751432 48.667026) scale(0.1 -0.1)">
       <use xlink:href="#CMR17-31" transform="scale(0.996264)"/>
       <use xlink:href="#CMR17-38" transform="translate(45.690477 0) scale(0.996264)"/>
       <use xlink:href="#CMR17-30" transform="translate(91.380954 0) scale(0.996264)"/>
       <use xlink:href="#CMR17-30" transform="translate(137.071431 0) scale(0.996264)"/>
       <use xlink:href="#CMR17-30" transform="translate(182.761908 0) scale(0.996264)"/>
      </g>
     </g>
    </g>
    <g id="text_16">
     <!-- $D$\textsubscript{M5} [N] -->
     <g transform="translate(20.513574 194.491693) rotate(-90) scale(0.13 -0.13)">
      <defs>
       <path id="CMMI12-44" d="M 1005 472 
C 947 249 934 185 486 185 
C 365 185 301 185 301 70 
C 301 0 339 0 467 0 
L 2496 0 
C 3789 0 5050 1332 5050 2753 
C 5050 3671 4499 4352 3584 4352 
L 1530 4352 
C 1408 4352 1350 4352 1350 4231 
C 1350 4167 1408 4167 1504 4167 
C 1894 4167 1894 4116 1894 4046 
C 1894 4034 1894 3995 1869 3899 
L 1005 472 
z
M 2355 3931 
C 2413 4167 2438 4167 2688 4167 
L 3392 4167 
C 3994 4167 4544 3842 4544 2963 
C 4544 2644 4416 1536 3795 835 
C 3616 625 3130 185 2394 185 
L 1664 185 
C 1574 185 1562 185 1523 192 
C 1453 198 1446 211 1446 262 
C 1446 307 1459 345 1472 402 
L 2355 3931 
z
" transform="scale(0.015625)"/>
       <path id="CMR17-4d" d="M 1338 4224 
C 1299 4320 1293 4320 1158 4320 
L 339 4320 
L 339 4160 
C 781 4160 851 4160 851 3875 
L 851 610 
C 851 451 851 153 339 153 
L 339 -13 
C 486 0 755 0 915 0 
C 1075 0 1344 0 1491 -13 
L 1491 153 
C 979 153 979 451 979 610 
L 979 4135 
L 986 4135 
L 2490 89 
C 2515 25 2528 -13 2579 -13 
C 2630 -13 2643 25 2669 89 
L 4186 4166 
L 4192 4166 
L 4192 438 
C 4192 153 4122 153 3680 153 
L 3680 -13 
C 3853 0 4198 0 4384 0 
C 4570 0 4922 0 5094 -13 
L 5094 153 
C 4653 153 4582 153 4582 438 
L 4582 3875 
C 4582 4160 4653 4160 5094 4160 
L 5094 4320 
L 4282 4320 
C 4147 4320 4141 4314 4102 4218 
L 2720 502 
L 1338 4224 
z
" transform="scale(0.015625)"/>
       <path id="CMR17-5b" d="M 1504 -1600 
L 1504 -1377 
L 902 -1377 
L 902 4544 
L 1504 4544 
L 1504 4767 
L 678 4767 
L 678 -1600 
L 1504 -1600 
z
" transform="scale(0.015625)"/>
       <path id="CMR17-4e" d="M 1312 4250 
C 1267 4320 1261 4320 1139 4320 
L 326 4320 
L 326 4160 
L 448 4160 
C 704 4160 819 4129 838 4122 
L 838 610 
C 838 451 838 153 326 153 
L 326 -13 
C 474 0 742 0 902 0 
C 1062 0 1331 0 1478 -13 
L 1478 153 
C 966 153 966 451 966 610 
L 966 4033 
C 1011 3995 1011 3982 1056 3919 
L 3430 76 
C 3475 0 3494 0 3526 0 
C 3590 0 3590 19 3590 139 
L 3590 3705 
C 3590 3863 3590 4160 4102 4160 
L 4102 4326 
C 3955 4320 3686 4320 3526 4320 
C 3366 4320 3098 4320 2950 4326 
L 2950 4160 
C 3462 4160 3462 3862 3462 3703 
L 3462 763 
L 1312 4250 
z
" transform="scale(0.015625)"/>
       <path id="CMR17-5d" d="M 915 4767 
L 90 4767 
L 90 4544 
L 691 4544 
L 691 -1377 
L 90 -1377 
L 90 -1600 
L 915 -1600 
L 915 4767 
z
" transform="scale(0.015625)"/>
      </defs>
      <use xlink:href="#CMMI12-44" transform="scale(0.996264)"/>
      <use xlink:href="#CMR17-4d" transform="translate(83.703948 -14.943915) scale(0.697382)"/>
      <use xlink:href="#CMR17-35" transform="translate(142.984545 -14.943915) scale(0.697382)"/>
      <use xlink:href="#CMR17-5b" transform="translate(205.541825 0) scale(0.996264)"/>
      <use xlink:href="#CMR17-4e" transform="translate(230.412883 0) scale(0.996264)"/>
      <use xlink:href="#CMR17-5d" transform="translate(299.485313 0) scale(0.996264)"/>
     </g>
    </g>
   </g>
   <g id="patch_3">
    <path d="M 59.658108 317.831983 
L 59.658108 25.794028 
" style="fill: none; stroke: #000000; stroke-width: 0.8; stroke-linejoin: miter; stroke-linecap: square"/>
   </g>
   <g id="patch_4">
    <path d="M 349.2 317.831983 
L 349.2 25.794028 
" style="fill: none; stroke: #000000; stroke-width: 0.8; stroke-linejoin: miter; stroke-linecap: square"/>
   </g>
   <g id="patch_5">
    <path d="M 59.658108 317.831983 
L 349.2 317.831983 
" style="fill: none; stroke: #000000; stroke-width: 0.8; stroke-linejoin: miter; stroke-linecap: square"/>
   </g>
   <g id="patch_6">
    <path d="M 59.658108 25.794028 
L 349.2 25.794028 
" style="fill: none; stroke: #000000; stroke-width: 0.8; stroke-linejoin: miter; stroke-linecap: square"/>
   </g>
   <g id="text_17">
    <!-- $D$\textsubscript{M5} against $v$\textsubscript{eff} -->
    <g transform="translate(160.062964 19.794028) scale(0.13 -0.13)">
     <defs>
      <path id="CMR17-61" d="M 2304 1653 
C 2304 2072 2304 2294 2035 2543 
C 1798 2752 1523 2816 1306 2816 
C 800 2816 435 2407 435 1971 
C 435 1728 627 1728 666 1728 
C 749 1728 896 1778 896 1954 
C 896 2112 774 2181 666 2181 
C 640 2181 608 2174 589 2168 
C 723 2592 1069 2714 1293 2714 
C 1613 2714 1965 2429 1965 1885 
L 1965 1600 
C 1587 1600 1133 1549 774 1357 
C 371 1133 256 813 256 570 
C 256 77 832 -64 1171 -64 
C 1523 -64 1850 139 1990 511 
C 2003 233 2182 -18 2464 -18 
C 2598 -18 2938 70 2938 567 
L 2938 920 
L 2822 920 
L 2822 562 
C 2822 178 2650 128 2566 128 
C 2304 128 2304 458 2304 738 
L 2304 1653 
z
M 1965 870 
C 1965 317 1568 38 1216 38 
C 896 38 646 275 646 570 
C 646 761 730 1100 1101 1305 
C 1408 1478 1760 1504 1965 1504 
L 1965 870 
z
" transform="scale(0.015625)"/>
      <path id="CMR17-67" d="M 710 1164 
C 832 1068 1043 960 1299 960 
C 1805 960 2240 1357 2240 1888 
C 2240 2054 2189 2310 1997 2509 
C 2176 2692 2438 2752 2586 2752 
C 2611 2752 2650 2752 2682 2734 
C 2656 2728 2598 2703 2598 2605 
C 2598 2527 2656 2471 2739 2471 
C 2835 2471 2886 2533 2886 2614 
C 2886 2731 2790 2854 2586 2854 
C 2330 2854 2106 2738 1926 2580 
C 1734 2753 1504 2816 1299 2816 
C 794 2816 358 2419 358 1888 
C 358 1522 570 1292 634 1228 
C 442 1004 442 743 442 711 
C 442 545 506 302 723 168 
C 390 85 128 -169 128 -486 
C 128 -943 736 -1280 1466 -1280 
C 2170 -1280 2803 -956 2803 -479 
C 2803 384 1856 384 1363 384 
C 1216 384 954 384 922 391 
C 723 423 589 602 589 826 
C 589 883 589 1024 710 1164 
z
M 1299 1068 
C 736 1068 736 1760 736 1889 
C 736 2016 736 2708 1299 2708 
C 1862 2708 1862 2016 1862 1889 
C 1862 1760 1862 1068 1299 1068 
z
M 1466 -1171 
C 826 -1171 384 -835 384 -486 
C 384 -289 493 -105 634 -4 
C 794 104 858 104 1293 104 
C 1818 104 2547 104 2547 -486 
C 2547 -835 2106 -1171 1466 -1171 
z
" transform="scale(0.015625)"/>
      <path id="CMR17-69" d="M 992 3909 
C 992 4049 877 4170 730 4170 
C 589 4170 467 4056 467 3909 
C 467 3769 582 3648 730 3648 
C 870 3648 992 3763 992 3909 
z
M 243 2706 
L 243 2541 
C 602 2541 653 2502 653 2197 
L 653 427 
C 653 184 627 153 218 153 
L 218 -13 
C 371 0 646 0 806 0 
C 960 0 1222 0 1370 -13 
L 1370 153 
C 992 153 979 191 979 420 
L 979 2776 
L 243 2706 
z
" transform="scale(0.015625)"/>
      <path id="CMR17-6e" d="M 2656 1933 
C 2656 2259 2592 2790 1837 2790 
C 1331 2790 1069 2400 973 2144 
L 966 2144 
L 966 2790 
L 211 2720 
L 211 2554 
C 589 2554 646 2515 646 2208 
L 646 428 
C 646 184 621 153 211 153 
L 211 -13 
C 365 0 646 0 813 0 
C 979 0 1267 0 1421 -13 
L 1421 153 
C 1011 153 986 178 986 428 
L 986 1658 
C 986 2247 1344 2688 1792 2688 
C 2266 2688 2317 2266 2317 1958 
L 2317 428 
C 2317 184 2291 153 1882 153 
L 1882 -13 
C 2035 0 2317 0 2483 0 
C 2650 0 2938 0 3091 -13 
L 3091 153 
C 2682 153 2656 178 2656 428 
L 2656 1933 
z
" transform="scale(0.015625)"/>
      <path id="CMR17-73" d="M 1978 2697 
C 1978 2813 1971 2819 1933 2819 
C 1907 2819 1901 2813 1824 2717 
C 1805 2691 1747 2626 1728 2601 
C 1523 2819 1235 2819 1126 2819 
C 416 2819 160 2447 160 2076 
C 160 1498 813 1365 998 1325 
C 1402 1243 1542 1217 1677 1101 
C 1760 1025 1901 884 1901 654 
C 1901 384 1747 38 1158 38 
C 602 38 403 460 288 1021 
C 269 1110 269 1117 218 1117 
C 166 1117 160 1110 160 983 
L 160 63 
C 160 -51 166 -58 205 -58 
C 237 -58 243 -51 275 0 
C 314 57 410 211 448 276 
C 576 103 800 -64 1158 -64 
C 1792 -64 2131 283 2131 784 
C 2131 1112 1958 1285 1875 1362 
C 1683 1561 1459 1606 1190 1657 
C 838 1735 390 1825 390 2217 
C 390 2383 480 2737 1126 2737 
C 1811 2737 1850 2094 1862 1888 
C 1869 1856 1901 1849 1920 1849 
C 1978 1849 1978 1869 1978 1978 
L 1978 2697 
z
" transform="scale(0.015625)"/>
      <path id="CMR17-74" d="M 966 2560 
L 1862 2560 
L 1862 2725 
L 966 2725 
L 966 3904 
L 851 3904 
C 838 3245 614 2668 70 2668 
L 70 2560 
L 627 2560 
L 627 771 
C 627 650 627 -64 1370 -64 
C 1747 -64 1965 306 1965 777 
L 1965 1140 
L 1850 1140 
L 1850 783 
C 1850 344 1677 51 1408 51 
C 1222 51 966 178 966 758 
L 966 2560 
z
" transform="scale(0.015625)"/>
     </defs>
     <use xlink:href="#CMMI12-44" transform="scale(0.996264)"/>
     <use xlink:href="#CMR17-4d" transform="translate(83.703948 -14.943915) scale(0.697382)"/>
     <use xlink:href="#CMR17-35" transform="translate(142.984545 -14.943915) scale(0.697382)"/>
     <use xlink:href="#CMR17-61" transform="translate(205.541825 0) scale(0.996264)"/>
     <use xlink:href="#CMR17-67" transform="translate(251.232302 0) scale(0.996264)"/>
     <use xlink:href="#CMR17-61" transform="translate(296.922779 0) scale(0.996264)"/>
     <use xlink:href="#CMR17-69" transform="translate(342.613256 0) scale(0.996264)"/>
     <use xlink:href="#CMR17-6e" transform="translate(367.484315 0) scale(0.996264)"/>
     <use xlink:href="#CMR17-73" transform="translate(418.379685 0) scale(0.996264)"/>
     <use xlink:href="#CMR17-74" transform="translate(454.181022 0) scale(0.996264)"/>
     <use xlink:href="#CMMI12-76" transform="translate(519.537756 0) scale(0.996264)"/>
     <use xlink:href="#CMR17-65" transform="translate(570.27293 -14.943915) scale(0.697382)"/>
     <use xlink:href="#CMR17-b" transform="translate(598.612761 -14.943915) scale(0.697382)"/>
    </g>
   </g>
   <g id="legend_1">
    <g id="patch_7">
     <path d="M 68.758108 54.31234 
L 184.50728 54.31234 
Q 187.10728 54.31234 187.10728 51.71234 
L 187.10728 34.894028 
Q 187.10728 32.294028 184.50728 32.294028 
L 68.758108 32.294028 
Q 66.158108 32.294028 66.158108 34.894028 
L 66.158108 51.71234 
Q 66.158108 54.31234 68.758108 54.31234 
z
" style="fill: #ffffff; opacity: 0.8; stroke: #cccccc; stroke-linejoin: miter"/>
    </g>
    <g id="PathCollection_2">
     <g>
      <use xlink:href="#m521dddfccd" x="84.358108" y="43.181528" style="fill: #ff0000; stroke: #ff0000"/>
     </g>
    </g>
    <g id="text_18">
     <!-- Sample Point -->
     <g transform="translate(107.758108 46.594028) scale(0.13 -0.13)">
      <defs>
       <path id="CMR17-53" d="M 2803 4290 
C 2803 4404 2797 4411 2758 4411 
C 2720 4411 2707 4385 2682 4328 
L 2490 3907 
C 2246 4257 1875 4416 1472 4416 
C 819 4416 294 3901 294 3253 
C 294 3056 339 2776 557 2510 
C 794 2218 1018 2167 1530 2033 
C 1722 1982 2042 1899 2106 1874 
C 2470 1722 2662 1341 2662 985 
C 2662 527 2336 38 1779 38 
C 1094 38 454 419 410 1311 
C 403 1413 397 1419 352 1419 
C 301 1419 294 1413 294 1285 
L 294 -1 
C 294 -115 301 -122 339 -122 
C 384 -122 397 -90 486 108 
C 493 127 493 140 614 381 
C 934 -39 1472 -128 1779 -128 
C 2477 -128 2970 451 2970 1124 
C 2970 1454 2848 1708 2778 1823 
C 2509 2230 2221 2306 1914 2382 
C 1869 2402 1856 2402 1498 2490 
C 1152 2579 1005 2624 845 2796 
C 666 2992 602 3196 602 3399 
C 602 3812 934 4263 1478 4263 
C 2157 4263 2579 3786 2675 2993 
C 2694 2878 2701 2872 2746 2872 
C 2803 2872 2803 2891 2803 2999 
L 2803 4290 
z
" transform="scale(0.015625)"/>
       <path id="CMR17-6d" d="M 4326 1933 
C 4326 2252 4269 2790 3507 2790 
C 3072 2790 2771 2496 2656 2151 
L 2650 2151 
C 2573 2676 2195 2790 1837 2790 
C 1331 2790 1069 2400 973 2144 
L 966 2144 
L 966 2790 
L 211 2720 
L 211 2554 
C 589 2554 646 2515 646 2208 
L 646 428 
C 646 184 621 153 211 153 
L 211 -13 
C 365 0 646 0 813 0 
C 979 0 1267 0 1421 -13 
L 1421 153 
C 1011 153 986 178 986 428 
L 986 1658 
C 986 2247 1344 2688 1792 2688 
C 2266 2688 2317 2266 2317 1958 
L 2317 428 
C 2317 184 2291 153 1882 153 
L 1882 -13 
C 2035 0 2317 0 2483 0 
C 2650 0 2938 0 3091 -13 
L 3091 153 
C 2682 153 2656 178 2656 428 
L 2656 1658 
C 2656 2247 3014 2688 3462 2688 
C 3936 2688 3987 2266 3987 1958 
L 3987 428 
C 3987 184 3962 153 3552 153 
L 3552 -13 
C 3706 0 3987 0 4154 0 
C 4320 0 4608 0 4762 -13 
L 4762 153 
C 4352 153 4326 178 4326 428 
L 4326 1933 
z
" transform="scale(0.015625)"/>
       <path id="CMR17-70" d="M 1408 -1063 
C 998 -1063 973 -1037 973 -789 
L 973 402 
C 1158 134 1427 -38 1766 -38 
C 2406 -38 3053 523 3053 1388 
C 3053 2191 2496 2802 1837 2802 
C 1453 2802 1139 2592 960 2338 
L 960 2802 
L 198 2732 
L 198 2567 
C 576 2567 634 2528 634 2223 
L 634 -789 
C 634 -1031 608 -1063 198 -1063 
L 198 -1228 
C 352 -1216 634 -1216 800 -1216 
C 966 -1216 1254 -1216 1408 -1228 
L 1408 -1063 
z
M 973 2012 
C 973 2102 973 2235 1222 2471 
C 1254 2497 1472 2688 1792 2688 
C 2259 2688 2643 2108 2643 1382 
C 2643 656 2234 64 1728 64 
C 1498 64 1248 172 1056 472 
C 973 612 973 650 973 752 
L 973 2012 
z
" transform="scale(0.015625)"/>
       <path id="CMR17-6c" d="M 979 4396 
L 218 4326 
L 218 4160 
C 595 4160 653 4122 653 3817 
L 653 426 
C 653 184 627 153 218 153 
L 218 -13 
C 371 0 653 0 813 0 
C 979 0 1261 0 1414 -13 
L 1414 153 
C 1005 153 979 178 979 426 
L 979 4396 
z
" transform="scale(0.015625)"/>
       <path id="CMR17-50" d="M 1267 2042 
L 2291 2042 
C 3117 2042 3718 2578 3718 3184 
C 3718 3791 3130 4352 2291 4352 
L 333 4352 
L 333 4186 
C 774 4186 845 4186 845 3899 
L 845 446 
C 845 160 774 160 333 160 
L 333 0 
C 518 0 858 0 1056 0 
C 1254 0 1594 0 1779 0 
L 1779 160 
C 1338 160 1267 160 1267 446 
L 1267 2042 
z
M 1254 2176 
L 1254 3938 
C 1254 4155 1267 4186 1523 4186 
L 2170 4186 
C 2995 4186 3232 3714 3232 3184 
C 3232 2604 2950 2176 2170 2176 
L 1254 2176 
z
" transform="scale(0.015625)"/>
       <path id="CMR17-6f" d="M 2758 1356 
C 2758 2176 2163 2816 1466 2816 
C 768 2816 173 2176 173 1356 
C 173 551 768 -64 1466 -64 
C 2163 -64 2758 551 2758 1356 
z
M 1466 51 
C 1165 51 909 230 762 480 
C 602 767 582 1126 582 1408 
C 582 1677 595 2010 762 2298 
C 890 2509 1139 2714 1466 2714 
C 1754 2714 1997 2554 2150 2330 
C 2349 2029 2349 1607 2349 1408 
C 2349 1158 2336 775 2163 467 
C 1984 173 1709 51 1466 51 
z
" transform="scale(0.015625)"/>
      </defs>
      <use xlink:href="#CMR17-53" transform="scale(0.996264)"/>
      <use xlink:href="#CMR17-61" transform="translate(50.89537 0) scale(0.996264)"/>
      <use xlink:href="#CMR17-6d" transform="translate(96.585847 0) scale(0.996264)"/>
      <use xlink:href="#CMR17-70" transform="translate(173.505437 0) scale(0.996264)"/>
      <use xlink:href="#CMR17-6c" transform="translate(224.400807 0) scale(0.996264)"/>
      <use xlink:href="#CMR17-65" transform="translate(249.271865 0) scale(0.996264)"/>
      <use xlink:href="#CMR17-50" transform="translate(319.833492 0) scale(0.996264)"/>
      <use xlink:href="#CMR17-6f" transform="translate(379.817338 0) scale(0.996264)"/>
      <use xlink:href="#CMR17-69" transform="translate(425.507816 0) scale(0.996264)"/>
      <use xlink:href="#CMR17-6e" transform="translate(450.378874 0) scale(0.996264)"/>
      <use xlink:href="#CMR17-74" transform="translate(498.67179 0) scale(0.996264)"/>
     </g>
    </g>
   </g>
  </g>
 </g>
 <defs>
  <clipPath id="pb60ad9c979">
   <rect x="59.658108" y="25.794028" width="289.541892" height="292.037955"/>
  </clipPath>
 </defs>
</svg>
